<?xml version="1.0" encoding="utf-8"?>
<!-- Generator: Adobe Illustrator 21.1.0, SVG Export Plug-In . SVG Version: 6.00 Build 0)  -->
<svg version="1.1" id="Layer_1" xmlns="http://www.w3.org/2000/svg" xmlns:xlink="http://www.w3.org/1999/xlink" x="0px" y="0px"
	 viewBox="0 0 243.2 308.8" style="enable-background:new 0 0 243.2 308.8;" xml:space="preserve">
<style type="text/css">
	.st0{fill:#2AC3ED;}
	.st1{fill:#29C3ED;stroke:#FFFFFF;stroke-width:6;stroke-miterlimit:10;}
	.st2{fill:#29C3ED;stroke:#29C3ED;stroke-miterlimit:10;}
	.st3{fill:#29C3ED;stroke:#FFFFFF;stroke-width:4;stroke-miterlimit:10;}
</style>
<rect class="st0" width="243.2" height="308.8"/>
<circle class="st1" cx="121.8" cy="196.8" r="108.9"/>
<path class="st1" d="M39.4,126.4c1.7-1.4,1.6-2.9,1.1-5.1c-6-22.3-0.9-41.6,15.8-57.7c1.5-1.4,1.9-2.6,1.4-4.5
	c-2.8-11.6-9-20.3-20.5-24.4c-9.9-3.6-20.8-0.8-27.1,6.5c-4.8,5.5-5.9,13.5-2.9,19.8c2.8,5.8,9.1,8.6,14.6,6.6
	c3.8-1.4,5.8-5.1,4.5-8.3c-0.5-1.2-1.2-2.1-2.5-2.3c-0.6-0.1-1.1,0-1.5,0.6c-0.4,0.6-0.3,0.9,0.4,1.3c0.7,0.4,0,0.8-0.4,1
	C21.7,60,21,60,20.5,59.5c-0.7-0.7-1.1-1.5-0.8-2.5c0.5-2.2,3.3-3.3,5.7-2.3c3,1.2,4.6,5,3.6,8.6c-1.7,6-9,9.1-15.6,6.6
	C8,67.7,5,63.7,3.5,58.2c-0.1-0.5,0-1-0.5-1.3c0-2.4,0-4.8,0-7.2c0.8-1,0.7-2.2,1.1-3.3c3.3-9.1,12.4-15.3,22.6-15.8
	c17.1-0.8,30.2,12,33.5,27.7c0.1,0.5,0,1,0.4,1.4c17.6-9.6,17.9-9.7,35.3-10.9c-1.7-4.1-2.9-8.4-3.2-12.8
	C91.3,19.2,102.8,5.6,117,3.3c11.1-1.8,22.2,5.6,24.3,16.4c1.7,8.8-5.3,17.2-13.5,16.5c-4.3-0.4-7.8-4.2-7.5-8.2
	c0.2-2.6,2.3-4.7,4.7-4.5c1.6,0.1,2.6,1,2.7,2.7c0,0.9-0.4,1.5-1.3,1.6c-1.2,0.2-0.5-0.6-0.6-1.1c-0.2-0.7-1-0.9-1.7-0.4
	c-1.3,0.9-1.4,2.2-0.9,3.6c1.1,2.9,4.5,4.5,7.9,3.6c6.1-1.7,9.4-8.5,7.3-15.2c-2.6-8.4-11.8-13.9-20.7-12.4
	c-13.5,2.3-23.2,14.5-22.6,28.5c0.2,4.6,1.2,9,3.1,13.3c0.5,1.1,1.1,1.6,2.3,1.7c22.2,2.4,41.2,18.5,47.2,40.1
	c0.6,2.1,1.4,3.4,3.5,3.6c0.1,0.5-0.1,0.8-0.6,1c-3.4-0.5-6.6-1.7-9.9-2.2c-0.4,0-0.8-0.1-1.2-0.2c-0.5-0.1-1-0.2-1.5-0.2
	c-0.8,0-1.6,0-2.4-0.1c-0.2,0-0.4-0.1-0.6-0.1c-0.7-0.2-1.4-0.2-2.1-0.4c-0.8-0.2-1.6-0.1-2.3-0.2c-5.7-0.5-11.3-0.6-17,0
	c-0.8,0-1.6-0.1-2.4,0.2c-0.8,0.2-1.6,0.2-2.4,0.2c-1.2,0.4-2.4,0.2-3.6,0.6c-0.6,0.2-1.3,0.2-1.9,0.2c-0.7,0.2-1.4,0.3-2.2,0.4
	c-2.1,0.4-4,1.2-6.1,1.4c-1.5,0.1-1.6,0.9-1.3,2.2c0.8,2.8,1.9,5.6,2.6,8.5c0.2,0.7,0.5,1.3,0.3,2.1c-0.1,0.3-0.2,0.5-0.5,0.6
	c-0.3,0-0.5-0.1-0.7-0.3c-0.4-0.2-1.1,0-1.3-0.6c-1-2.9-1.3-5.9-2.2-8.9c-0.6-0.8,0.2-2.2-1.3-2.5c-2.4,0.6-4.7,1.7-7.1,2.4
	c-0.6,0.2-1.1,0.4-1.6,0.6c-12.6,4.9-23.7,12.2-33.6,21.2c-1.9,1.8-3.7,3.7-5.6,5.6c-0.9,0.7-1.5,1.8-2.7,2.1
	C39.7,126.6,39.6,126.5,39.4,126.4z"/>
<circle class="st2" cx="121.8" cy="196.8" r="108.9"/>
<circle class="st3" cx="151.1" cy="142.2" r="25.2"/>
<circle class="st3" cx="65.1" cy="162.2" r="25.2"/>
<circle class="st3" cx="76.1" cy="247.2" r="25.2"/>
<circle class="st3" cx="185.3" cy="225.5" r="25.2"/>
<path class="st2" d="M39.4,126.4c1.7-1.4,1.6-2.9,1.1-5.1c-6-22.3-0.9-41.6,15.8-57.7c1.5-1.4,1.9-2.6,1.4-4.5
	c-2.8-11.6-9-20.3-20.5-24.4c-9.9-3.6-20.8-0.8-27.1,6.5c-4.8,5.5-5.9,13.5-2.9,19.8c2.8,5.8,9.1,8.6,14.6,6.6
	c3.8-1.4,5.8-5.1,4.5-8.3c-0.5-1.2-1.2-2.1-2.5-2.3c-0.6-0.1-1.1,0-1.5,0.6c-0.4,0.6-0.3,0.9,0.4,1.3c0.7,0.4,0,0.8-0.4,1
	C21.7,60,21,60,20.5,59.5c-0.7-0.7-1.1-1.5-0.8-2.5c0.5-2.2,3.3-3.3,5.7-2.3c3,1.2,4.6,5,3.6,8.6c-1.7,6-9,9.1-15.6,6.6
	C8,67.7,5,63.7,3.5,58.2c-0.1-0.5,0-1-0.5-1.3c0-2.4,0-4.8,0-7.2c0.8-1,0.7-2.2,1.1-3.3c3.3-9.1,12.4-15.3,22.6-15.8
	c17.1-0.8,30.2,12,33.5,27.7c0.1,0.5,0,1,0.4,1.4c17.6-9.6,17.9-9.7,35.3-10.9c-1.7-4.1-2.9-8.4-3.2-12.8
	C91.3,19.2,102.8,5.6,117,3.3c11.1-1.8,22.2,5.6,24.3,16.4c1.7,8.8-5.3,17.2-13.5,16.5c-4.3-0.4-7.8-4.2-7.5-8.2
	c0.2-2.6,2.3-4.7,4.7-4.5c1.6,0.1,2.6,1,2.7,2.7c0,0.9-0.4,1.5-1.3,1.6c-1.2,0.2-0.5-0.6-0.6-1.1c-0.2-0.7-1-0.9-1.7-0.4
	c-1.3,0.9-1.4,2.2-0.9,3.6c1.1,2.9,4.5,4.5,7.9,3.6c6.1-1.7,9.4-8.5,7.3-15.2c-2.6-8.4-11.8-13.9-20.7-12.4
	c-13.5,2.3-23.2,14.5-22.6,28.5c0.2,4.6,1.2,9,3.1,13.3c0.5,1.1,1.1,1.6,2.3,1.7c22.2,2.4,41.2,18.5,47.2,40.1
	c0.6,2.1,1.4,3.4,3.5,3.6c0.1,0.5-0.1,0.8-0.6,1c-3.4-0.5-6.6-1.7-9.9-2.2c-0.4,0-0.8-0.1-1.2-0.2c-0.5-0.1-1-0.2-1.5-0.2
	c-0.8,0-1.6,0-2.4-0.1c-0.2,0-0.4-0.1-0.6-0.1c-0.7-0.2-1.4-0.2-2.1-0.4c-0.8-0.2-1.6-0.1-2.3-0.2c-5.7-0.5-11.3-0.6-17,0
	c-0.8,0-1.6-0.1-2.4,0.2c-0.8,0.2-1.6,0.2-2.4,0.2c-1.2,0.4-2.4,0.2-3.6,0.6c-0.6,0.2-1.3,0.2-1.9,0.2c-0.7,0.2-1.4,0.3-2.2,0.4
	c-2.1,0.4-4,1.2-6.1,1.4c-1.5,0.1-1.6,0.9-1.3,2.2c0.8,2.8,1.9,5.6,2.6,8.5c0.2,0.7,0.5,1.3,0.3,2.1c-0.1,0.3-0.2,0.5-0.5,0.6
	c-0.3,0-0.5-0.1-0.7-0.3c-0.4-0.2-1.1,0-1.3-0.6c-1-2.9-1.3-5.9-2.2-8.9c-0.6-0.8,0.2-2.2-1.3-2.5c-2.4,0.6-4.7,1.7-7.1,2.4
	c-0.6,0.2-1.1,0.4-1.6,0.6c-12.6,4.9-23.7,12.2-33.6,21.2c-1.9,1.8-3.7,3.7-5.6,5.6c-0.9,0.7-1.5,1.8-2.7,2.1
	C39.7,126.6,39.6,126.5,39.4,126.4z"/>
</svg>
